# xmcd CD database file generated by Grip 3.0.5
# 
# Track frame offsets:
#       150
#       16456
#       32067
#       48189
#       63839
# 
# Disc length: 1072 seconds
# 
# Revision: 1
# Processed by: cddbd v1.4PL0 Copyright (c) Steve Scherf et al.
# Submitted via: Grip 3.0.5
# 
DISCID=35042e05
DTITLE=Fifth Year Crush - The December Sessions
DYEAR=2001
DGENRE=Alternative
TTITLE0=Madison
TTITLE1=Swallowing Stones
TTITLE2=Hollywood Ending
TTITLE3=Bruises
TTITLE4=Bring Down The Stars
EXTD=
EXTT0=
EXTT1=
EXTT2=
EXTT3=
EXTT4=
PLAYORDER=
